<?xml version="1.0" encoding="UTF-8" standalone="no"?>
<!DOCTYPE svg PUBLIC "-//W3C//DTD SVG 1.1//EN" "http://www.w3.org/Graphics/SVG/1.1/DTD/svg11.dtd">
<svg width="100%" height="100%" viewBox="0 0 420 134" version="1.1" xmlns="http://www.w3.org/2000/svg" xmlns:xlink="http://www.w3.org/1999/xlink" xml:space="preserve" xmlns:serif="http://www.serif.com/" style="fill-rule:evenodd;clip-rule:evenodd;stroke-linejoin:round;stroke-miterlimit:2;">
    <g id="c" transform="matrix(0.972425,0,0,0.972425,0,0)">
        <path d="M156.09,23C138.29,23 124.81,35.44 124.81,52.12C124.81,68.8 138.38,81.24 155.83,81.24C166.29,81.24 174.5,76.75 179.77,70.44L179.77,69.23L169.4,60.42L168.19,60.42C165.34,63.53 160.93,65.86 156.01,65.86C148.32,65.86 142.27,60.07 142.27,52.12C142.27,44.17 148.32,38.38 156.01,38.38C160.94,38.38 165.34,40.71 168.19,43.82L169.4,43.82L179.77,35.01L179.77,33.8C174.33,27.23 165.77,23 156.09,23Z" style="fill:white;fill-rule:nonzero;"/>
        <path d="M188.58,80.18L231.61,80.18L231.61,66.11L205.69,66.11L205.69,58.19L225.21,58.19L225.21,44.99L205.69,44.99L205.69,37.07L231.61,37.07L231.61,23L188.58,23L188.58,80.18Z" style="fill:white;fill-rule:nonzero;"/>
        <path d="M391.97,19.56L414.53,11.09L414.53,9.88L408.57,0.03L407.36,0.03L387.39,12.3L387.39,13.51L390.76,19.56L391.97,19.56Z" style="fill:white;fill-rule:nonzero;"/>
        <path d="M423.26,60.39L416.43,45.15L406.5,23L390.77,23L366.83,80.19L384.8,80.19L388,71.57L409.34,71.57C411.07,74.65 412.88,77.02 414.87,78.61C417.2,80.37 420.05,81.25 423.68,81.25C426.85,81.25 429.65,80.58 431.9,79.38L424.18,62.32C423.88,61.77 423.58,61.14 423.25,60.4L423.26,60.39ZM392.32,60.13L398.63,43.15L404.59,60.13L392.32,60.13Z" style="fill:white;fill-rule:nonzero;"/>
        <path d="M294.41,60.39L287.58,45.15L277.65,23L261.92,23L237.98,80.19L255.95,80.19L259.15,71.57L280.49,71.57C282.22,74.65 284.03,77.02 286.02,78.61C288.35,80.37 291.2,81.25 294.83,81.25C298,81.25 300.8,80.58 303.05,79.38L295.33,62.32C295.03,61.77 294.73,61.14 294.4,60.4L294.41,60.39ZM263.47,60.13L269.78,43.15L275.74,60.13L263.47,60.13Z" style="fill:white;fill-rule:nonzero;"/>
        <path d="M348.77,57.75C354.99,54.93 359.14,49.57 359.14,42.09C359.14,30.39 351.19,23 336.41,23L309.8,23L309.8,80.19L326.91,80.19L326.91,60.13L328.29,60.13C332.09,60.13 335.63,67.96 337.71,71.66C341.6,78.52 345.23,81.25 353,81.25C356.46,81.25 360,80.11 361.73,78.7L361.78,78.56L349.13,58.16C349.01,58.03 348.89,57.88 348.77,57.76L348.77,57.75ZM335.72,48.69L326.91,48.69L326.91,37.08L335.72,37.08C338.92,37.08 341.68,39.19 341.68,43.06C341.68,46.93 338.91,48.69 335.72,48.69Z" style="fill:white;fill-rule:nonzero;"/>
        <path d="M142.84,100.47C142.84,102.95 141.91,105.17 140.33,106.76C138.78,108.35 136.57,109.35 134.04,109.35C128.99,109.35 125.18,105.49 125.18,100.26C125.18,95.03 129.09,91.17 134.06,91.17C136.94,91.17 139.5,92.52 141.08,94.54L141.08,94.86L138.59,97.05L138.28,97.05C137.32,95.81 135.87,94.97 134.16,94.97C131.49,94.97 129.29,97.15 129.29,100.28C129.29,103.41 131.39,105.54 134.24,105.54C135.48,105.54 136.62,105.11 137.45,104.33C138.1,103.71 138.54,102.93 138.69,102.01L134.18,102.01L134.18,98.91L142.47,98.91L142.78,99.18C142.83,99.58 142.83,100.1 142.83,100.47L142.84,100.47Z" style="fill:white;fill-rule:nonzero;"/>
        <path d="M146.03,100.26C146.03,95.05 150.19,91.17 155.66,91.17C161.13,91.17 165.27,95.05 165.27,100.26C165.27,105.47 161.11,109.35 155.66,109.35C150.21,109.35 146.03,105.46 146.03,100.26ZM160.98,100.26C160.98,97.16 158.63,94.97 155.66,94.97C152.69,94.97 150.34,97.15 150.34,100.26C150.34,103.37 152.69,105.55 155.66,105.55C158.63,105.55 160.98,103.34 160.98,100.26Z" style="fill:white;fill-rule:nonzero;"/>
        <path d="M185.01,91.81L177.1,109.03L174.62,109.03L166.72,91.81L166.91,91.49L171.23,91.49L175.87,102.77L180.67,91.49L184.83,91.49L185.02,91.81L185.01,91.81Z" style="fill:white;fill-rule:nonzero;"/>
        <path d="M192.41,94.93L192.41,98.58L199.05,98.58L199.05,101.87L192.41,101.87L192.41,105.57L201.04,105.57L201.04,109.02L188.2,109.02L188.2,91.48L200.99,91.48L200.99,94.93L192.41,94.93Z" style="fill:white;fill-rule:nonzero;"/>
        <path d="M219.84,108.7L219.65,109.02L215.47,109.02L211.93,102.44L209.47,102.44L209.47,109.02L205.26,109.02L205.26,91.48L212.81,91.48C217.24,91.48 219.58,93.61 219.58,97.07C219.58,99.44 218.23,101.09 216.13,101.9L219.83,108.7L219.84,108.7ZM209.48,99.55L212.85,99.55C214.28,99.55 215.31,98.69 215.31,97.28C215.31,95.87 214.28,94.93 212.85,94.93L209.48,94.93L209.48,99.55Z" style="fill:white;fill-rule:nonzero;"/>
        <path d="M239.58,91.49L239.58,109.11L236.96,109.11L228.06,98.67L228.06,109.03L223.88,109.03L223.88,91.49L226.5,91.49L235.38,101.93L235.38,91.49L239.59,91.49L239.58,91.49Z" style="fill:white;fill-rule:nonzero;"/>
        <path d="M243.62,100.26C243.62,95.05 247.78,91.17 253.25,91.17C258.72,91.17 262.86,95.05 262.86,100.26C262.86,105.47 258.7,109.35 253.25,109.35C247.8,109.35 243.62,105.46 243.62,100.26ZM258.57,100.26C258.57,97.16 256.22,94.97 253.25,94.97C250.28,94.97 247.93,97.15 247.93,100.26C247.93,103.37 250.28,105.55 253.25,105.55C256.22,105.55 258.57,103.34 258.57,100.26Z" style="fill:white;fill-rule:nonzero;"/>
        <path d="M290.71,100.23C290.71,105.52 287.15,109.03 281.48,109.03L273.82,109.03L273.82,91.49L281.48,91.49C287.15,91.49 290.71,95 290.71,100.23ZM286.42,100.26C286.42,96.94 284.37,94.94 281.35,94.94L278.03,94.94L278.03,105.57L281.35,105.57C284.37,105.57 286.42,103.57 286.42,100.25L286.42,100.26Z" style="fill:white;fill-rule:nonzero;"/>
        <path d="M293.72,100.26C293.72,95.05 297.88,91.17 303.35,91.17C308.82,91.17 312.96,95.05 312.96,100.26C312.96,105.47 308.8,109.35 303.35,109.35C297.9,109.35 293.72,105.46 293.72,100.26ZM308.67,100.26C308.67,97.16 306.32,94.97 303.35,94.97C300.38,94.97 298.03,97.15 298.03,100.26C298.03,103.37 300.38,105.55 303.35,105.55C306.32,105.55 308.67,103.34 308.67,100.26Z" style="fill:white;fill-rule:nonzero;"/>
        <path d="M328.13,94.93L328.13,98.58L334.77,98.58L334.77,101.87L328.13,101.87L328.13,105.57L336.76,105.57L336.76,109.02L323.92,109.02L323.92,91.48L336.71,91.48L336.71,94.93L328.13,94.93Z" style="fill:white;fill-rule:nonzero;"/>
        <path d="M339.67,106.19L339.67,105.87L341.75,103.47L342.05,103.47C343.15,104.74 345.18,105.79 346.91,105.79C348.64,105.79 349.72,105.09 349.72,104.06C349.72,102.58 348.02,102.39 345.86,101.71C343.46,100.95 340.52,99.6 340.52,96.34C340.52,93.29 343.22,91.16 347.13,91.16C349.99,91.16 352.45,92.29 353.71,93.8L353.71,94.1L351.63,96.47L351.33,96.47C350.47,95.58 349.01,94.55 347.17,94.55C345.76,94.55 344.8,95.14 344.8,96.11C344.8,97.27 346.12,97.73 347.55,98.21C350.54,99.16 354.02,100.07 354.02,104.01C354.02,107.44 350.92,109.33 347.14,109.33C344.01,109.33 341.23,108.09 339.67,106.17L339.67,106.19Z" style="fill:white;fill-rule:nonzero;"/>
        <path d="M365.92,109.03L361.68,109.03L361.68,94.94L356.18,94.94L356.18,91.49L371.42,91.49L371.42,94.94L365.92,94.94L365.92,109.03Z" style="fill:white;fill-rule:nonzero;"/>
        <path d="M389.59,108.7L389.4,109.02L385.14,109.02L383.87,105.94L376.45,105.94L375.15,109.02L371.05,109.02L370.86,108.7L378.95,91.48L381.51,91.48L389.58,108.7L389.59,108.7ZM382.68,103.03L380.23,97.07L377.69,103.03L382.68,103.03Z" style="fill:white;fill-rule:nonzero;"/>
        <path d="M409.66,100.23C409.66,105.52 406.1,109.03 400.43,109.03L392.77,109.03L392.77,91.49L400.43,91.49C406.1,91.49 409.66,95 409.66,100.23ZM405.37,100.26C405.37,96.94 403.32,94.94 400.3,94.94L396.98,94.94L396.98,105.57L400.3,105.57C403.32,105.57 405.37,103.57 405.37,100.25L405.37,100.26Z" style="fill:white;fill-rule:nonzero;"/>
        <path d="M412.67,100.26C412.67,95.05 416.83,91.17 422.3,91.17C427.77,91.17 431.91,95.05 431.91,100.26C431.91,105.47 427.75,109.35 422.3,109.35C416.85,109.35 412.67,105.46 412.67,100.26ZM427.62,100.26C427.62,97.16 425.27,94.97 422.3,94.97C419.33,94.97 416.98,97.15 416.98,100.26C416.98,103.37 419.33,105.55 422.3,105.55C425.27,105.55 427.62,103.34 427.62,100.26Z" style="fill:white;fill-rule:nonzero;"/>
        <path d="M92.56,56.55C93.17,51.11 97.02,47.36 101.48,44.53L102.27,44.03L87.4,25.14L87.09,25.08C85.31,24.74 83.53,24.43 81.75,24.15C76.32,23.42 72.48,22.93 69.13,22.6C68.21,22.52 67.29,22.44 66.37,22.38L66.28,22.38L65.45,22.32L65.23,22.32L65.01,22.29C62.96,22.15 60.9,22.05 58.85,21.98L58.83,21.98C58.59,21.97 58.34,21.96 58.09,21.95C57.88,21.95 57.68,21.95 57.47,21.94C49.95,21.78 43.3,22.03 38.57,22.32C36.93,22.42 26.33,23.47 24.36,23.71C24.25,23.72 24.14,23.74 24.04,23.75C21.63,24.08 16.69,24.85 14.88,25.13L0,44.03L0.79,44.53C5.24,47.36 9.1,51.1 9.71,56.55C10.32,61.89 7.43,68.1 5.41,72.96C2.7,79.47 0.18,85.91 0.18,93.08C0.18,94.62 0.42,96.14 0.87,97.61C2.35,102.38 6.03,106.21 9.9,109.26C14.41,112.81 19.65,115.73 24.73,118.42C30.01,121.22 35.48,123.87 40.57,126.97C43.97,129.04 48.5,132.1 50.37,135.68L51.13,137.14L51.89,135.68C53.76,132.1 58.29,129.05 61.68,126.97C66.78,123.87 72.25,121.22 77.53,118.42C82.61,115.72 87.85,112.81 92.36,109.26C96.23,106.21 99.91,102.38 101.39,97.61C101.84,96.14 102.08,94.62 102.08,93.08C102.08,85.92 99.56,79.48 96.85,72.96C94.83,68.1 91.95,61.89 92.55,56.55" style="fill:white;fill-rule:nonzero;"/>
        <path d="M69.33,3.6L72.33,4.06L72.36,2.25L69.33,3.6Z" style="fill:rgb(234,214,176);"/>
        <path d="M42.52,1.19L42.49,2.95L44.23,2.83L42.52,1.19Z" style="fill:rgb(234,214,176);"/>
        <path d="M58,2.81L59.75,2.92L59.71,1.17L58,2.81Z" style="fill:rgb(234,214,176);"/>
        <g>
            <clipPath id="_clip1">
                <path d="M47.78,0.31C47.59,0.31 47.43,0.46 47.43,0.66L47.43,3.05C45.59,3.09 43.7,3.16 41.81,3.24L41.81,0.88C41.81,0.79 41.76,0.69 41.69,0.63C41.62,0.57 41.53,0.53 41.43,0.54C39.36,0.67 37.23,0.85 35.09,1.05C34.91,1.07 34.77,1.22 34.77,1.4L34.77,3.77C32.86,3.98 31.22,4.18 29.41,4.43L29.41,2.04C29.41,1.94 29.36,1.84 29.29,1.78C29.21,1.71 29.1,1.69 29,1.7C27.65,1.92 26.2,2.22 24.78,2.52C23.95,2.69 23.16,2.86 22.39,3.01C22.23,3.04 22.1,3.18 22.1,3.35L22.1,5.94C22.1,5.99 22.12,6.05 22.14,6.1C22.48,6.76 22.83,7.43 23.17,8.1C23.22,8.2 23.33,8.26 23.44,8.27C23.49,8.27 23.55,8.27 23.6,8.25C32.88,6.78 41.55,6.06 50.08,6.03C59.04,6 67.82,7.08 78.25,8.72L78.3,8.72C78.39,8.72 78.47,8.69 78.53,8.64C78.61,8.58 78.65,8.48 78.65,8.37L78.65,8.05C78.93,7.52 79.22,6.98 79.5,6.45L79.69,6.08C79.69,6.08 79.73,5.98 79.73,5.92L79.73,3.33C79.73,3.16 79.61,3.02 79.45,2.99L78.38,2.78C76.59,2.42 74.74,2.06 72.98,1.77C72.88,1.75 72.78,1.78 72.7,1.85C72.62,1.91 72.58,2 72.57,2.11L72.52,3.51L72.54,4.35C71.07,4.15 69.69,4.01 68.24,3.85C67.86,3.81 67.47,3.77 67.08,3.73L67.08,1.36C67.08,1.18 66.94,1.03 66.76,1.01C64.68,0.81 62.55,0.64 60.42,0.5C60.32,0.5 60.23,0.53 60.15,0.59C60.08,0.65 60.04,0.75 60.04,0.84L60.04,3.18C58.2,3.1 56.31,3.05 54.42,3.01L54.42,0.64C54.42,0.45 54.26,0.29 54.07,0.29L51.45,0.29C50.22,0.29 48.98,0.29 47.74,0.31"/>
            </clipPath>
            <g clip-path="url(#_clip1)">
                <rect x="22.12" y="0.29" width="57.66" height="8.42" style="fill:url(#_Linear2);"/>
            </g>
        </g>
        <g>
            <clipPath id="_clip3">
                <path d="M23.29,8.61L25.77,11.04C25.77,11.04 38.53,8.89 50.7,8.89C62.87,8.89 76.4,11.04 76.4,11.04L78.12,9.43L78.6,8.61C78.6,8.61 67.34,6.21 51.9,6.21C36.46,6.21 23.29,8.61 23.29,8.61"/>
            </clipPath>
            <g clip-path="url(#_clip3)">
                <rect x="23.29" y="6.21" width="55.32" height="4.83" style="fill:url(#_Linear4);"/>
            </g>
        </g>
        <g>
            <clipPath id="_clip5">
                <path d="M27.9,10.93L22.16,24.6C22.16,24.6 36.51,22.92 51.95,22.58C67.37,22.24 80.21,24.62 80.26,24.7C80.21,24.6 74.23,10.83 74.23,10.83C74.23,10.83 64.03,9.53 51.82,9.22C50.94,9.2 50.07,9.19 49.2,9.19C37.98,9.19 27.89,10.93 27.89,10.93"/>
            </clipPath>
            <g clip-path="url(#_clip5)">
                <rect x="22.16" y="9.2" width="58.1" height="15.51" style="fill:url(#_Linear6);"/>
            </g>
        </g>
        <path d="M55.05,22.31L46.4,22.42C46.4,22.42 46.56,18.74 46.95,17.55C47.34,16.36 48.14,15.03 49.1,14.44C50.06,13.86 51.19,13.58 52.23,13.96C53.28,14.34 53.98,14.9 54.65,16.05C55.32,17.2 55.57,18.3 55.79,19.59C56,20.88 55.79,22.37 55.79,22.37L55.05,22.31Z" style="fill:rgb(234,214,176);"/>
        <path d="M64.04,11.63C62.66,11.71 61.42,12.57 61.51,13.7C61.61,14.83 62.27,20.05 62.27,20.05L67.83,20.45L66.82,13.28C66.82,13.28 65.41,11.55 64.03,11.63" style="fill:rgb(234,214,176);"/>
        <g>
            <clipPath id="_clip7">
                <path d="M17.4,29.62L6.81,42.88C10.84,46.23 13.83,50.44 14.45,55.91C15.19,62.42 12.3,68.96 9.86,74.87C7.43,80.71 4.99,86.74 4.99,93.14C4.99,94.19 5.15,95.21 5.46,96.21C7.88,104.02 20.1,110.49 26.92,114.12C32.32,116.98 37.89,119.68 43.1,122.86C45.74,124.47 48.76,126.29 51.14,128.57C53.52,126.29 56.21,124.47 58.86,122.86C64.07,119.68 69.64,116.98 75.03,114.12C82.32,110.25 96.96,102.74 96.96,93.15C96.96,86.75 94.52,80.72 92.1,74.88C89.65,68.98 86.83,62.45 87.56,55.94C88.17,50.47 91.19,46.39 95.22,43.04L84.52,29.6C73.77,27.66 62.93,26.76 52.1,26.76C40.51,26.76 28.92,27.78 17.41,29.64"/>
            </clipPath>
            <g clip-path="url(#_clip7)">
                <rect x="4.99" y="26.75" width="91.97" height="101.81" style="fill:url(#_Radial8);"/>
            </g>
        </g>
        <path d="M19.35,47.46L18.48,50.25L15.65,50.24L17.95,51.97L17.06,54.76L19.35,53.03L21.65,54.76L20.76,51.97L23.06,50.24L20.23,50.25L19.35,47.46Z" style="fill:white;"/>
        <path d="M19.35,47.46L18.48,50.25L15.65,50.24L17.95,51.97L17.06,54.76L19.35,53.03L21.65,54.76L20.76,51.97L23.06,50.24L20.23,50.25L19.35,47.46Z" style="fill:none;fill-rule:nonzero;"/>
        <path d="M16.97,66.47L16.1,69.26L13.26,69.26L15.56,70.98L14.68,73.78L16.97,72.04L19.26,73.78L18.38,70.98L20.67,69.26L17.84,69.26L16.97,66.47Z" style="fill:white;"/>
        <path d="M16.97,66.47L16.1,69.26L13.26,69.26L15.56,70.98L14.68,73.78L16.97,72.04L19.26,73.78L18.38,70.98L20.67,69.26L17.84,69.26L16.97,66.47Z" style="fill:none;fill-rule:nonzero;"/>
        <path d="M13.88,83.5L13.01,86.3L10.17,86.29L12.47,88.02L11.59,90.81L13.88,89.08L16.17,90.81L15.29,88.02L17.58,86.29L14.75,86.3L13.88,83.5Z" style="fill:white;"/>
        <path d="M13.88,83.5L13.01,86.3L10.17,86.29L12.47,88.02L11.59,90.81L13.88,89.08L16.17,90.81L15.29,88.02L17.58,86.29L14.75,86.3L13.88,83.5Z" style="fill:none;fill-rule:nonzero;"/>
        <path d="M50.78,113.14L49.91,115.94L47.08,115.94L49.38,117.66L48.49,120.45L50.78,118.72L53.08,120.45L52.19,117.66L54.49,115.94L51.66,115.94L50.78,113.14Z" style="fill:white;"/>
        <path d="M50.78,113.14L49.91,115.94L47.08,115.94L49.38,117.66L48.49,120.45L50.78,118.72L53.08,120.45L52.19,117.66L54.49,115.94L51.66,115.94L50.78,113.14Z" style="fill:none;fill-rule:nonzero;"/>
        <path d="M67.88,106.23L67.01,109.03L64.18,109.02L66.47,110.75L65.59,113.54L67.88,111.81L70.17,113.54L69.29,110.75L71.59,109.02L68.75,109.03L67.88,106.23Z" style="fill:white;"/>
        <path d="M67.88,106.23L67.01,109.03L64.18,109.02L66.47,110.75L65.59,113.54L67.88,111.81L70.17,113.54L69.29,110.75L71.59,109.02L68.75,109.03L67.88,106.23Z" style="fill:none;fill-rule:nonzero;"/>
        <path d="M33.52,106.23L34.4,109.03L37.23,109.02L34.93,110.75L35.81,113.54L33.52,111.81L31.23,113.54L32.11,110.75L29.82,109.02L32.65,109.03L33.52,106.23Z" style="fill:white;"/>
        <path d="M33.52,106.23L34.4,109.03L37.23,109.02L34.93,110.75L35.81,113.54L33.52,111.81L31.23,113.54L32.11,110.75L29.82,109.02L32.65,109.03L33.52,106.23Z" style="fill:none;fill-rule:nonzero;"/>
        <path d="M19.93,97.15L20.8,99.95L23.63,99.94L21.34,101.67L22.22,104.46L19.93,102.73L17.64,104.46L18.52,101.67L16.22,99.94L19.06,99.95L19.93,97.15Z" style="fill:white;"/>
        <path d="M19.93,97.15L20.8,99.95L23.63,99.94L21.34,101.67L22.22,104.46L19.93,102.73L17.64,104.46L18.52,101.67L16.22,99.94L19.06,99.95L19.93,97.15Z" style="fill:none;fill-rule:nonzero;"/>
        <g>
            <clipPath id="_clip9">
                <path d="M23.17,73.34L78.74,73.34C79.2,55.59 69.91,37.37 50.96,37.37C32.01,37.37 22.72,55.59 23.18,73.34"/>
            </clipPath>
            <g clip-path="url(#_clip9)">
                <rect x="22.71" y="37.37" width="56.48" height="35.97" style="fill:url(#_Radial10);"/>
            </g>
        </g>
        <path d="M23.16,71.49L38.79,71.49L38.79,72.16L23.15,72.16L23.15,71.5" style="fill:rgb(201,165,46);"/>
        <path d="M23.16,71.49L38.79,71.49L38.79,72.16L23.15,72.16L23.15,71.5L23.16,71.49Z" style="fill:none;fill-rule:nonzero;"/>
        <path d="M23.29,68.46L38.87,71.51L38.74,72.16L23.25,69.13C23.27,68.91 23.28,68.68 23.3,68.46" style="fill:rgb(201,165,46);"/>
        <path d="M23.29,68.46L38.87,71.51L38.74,72.16L23.25,69.13C23.27,68.91 23.28,68.68 23.3,68.46L23.29,68.46Z" style="fill:none;fill-rule:nonzero;"/>
        <path d="M23.64,65.31L38.94,71.54L38.68,72.15L23.54,65.98C23.57,65.75 23.6,65.53 23.63,65.3" style="fill:rgb(201,165,46);"/>
        <path d="M23.64,65.31L38.94,71.54L38.68,72.15L23.54,65.98C23.57,65.75 23.6,65.53 23.63,65.3L23.64,65.31Z" style="fill:none;fill-rule:nonzero;"/>
        <path d="M24.25,61.9L39,71.59L38.63,72.14L24.1,62.6C24.15,62.37 24.2,62.13 24.25,61.9" style="fill:rgb(201,165,46);"/>
        <path d="M24.25,61.9L39,71.59L38.63,72.14L24.1,62.6C24.15,62.37 24.2,62.13 24.25,61.9Z" style="fill:none;fill-rule:nonzero;"/>
        <path d="M25.28,58.1L39.06,71.64L38.58,72.11L25.05,58.82C25.12,58.58 25.2,58.34 25.27,58.1" style="fill:rgb(201,165,46);"/>
        <path d="M25.28,58.1L39.06,71.64L38.58,72.11L25.05,58.82C25.12,58.58 25.2,58.34 25.27,58.1L25.28,58.1Z" style="fill:none;fill-rule:nonzero;"/>
        <path d="M26.92,53.82L39.1,71.7L38.54,72.07L26.6,54.54C26.7,54.3 26.81,54.06 26.92,53.82" style="fill:rgb(201,165,46);"/>
        <path d="M26.92,53.82L39.1,71.7L38.54,72.07L26.6,54.54C26.7,54.3 26.81,54.06 26.92,53.82Z" style="fill:none;fill-rule:nonzero;"/>
        <path d="M29.52,49.1L39.12,71.78L38.5,72.03L29.08,49.78C29.22,49.55 29.37,49.32 29.52,49.1" style="fill:rgb(201,165,46);"/>
        <path d="M29.52,49.1L39.12,71.78L38.5,72.03L29.08,49.78C29.22,49.55 29.37,49.32 29.52,49.1Z" style="fill:none;fill-rule:nonzero;"/>
        <path d="M33.48,44.3L39.14,71.86L38.48,71.99L32.91,44.87C33.1,44.68 33.29,44.49 33.48,44.3" style="fill:rgb(201,165,46);"/>
        <path d="M33.48,44.3L39.14,71.86L38.48,71.99L32.91,44.87C33.1,44.68 33.29,44.49 33.48,44.3Z" style="fill:none;fill-rule:nonzero;"/>
        <path d="M39.01,40.25L39.13,71.93L38.46,71.93L38.34,40.62C38.56,40.49 38.78,40.37 39.01,40.25" style="fill:rgb(201,165,46);"/>
        <path d="M39.01,40.25L39.13,71.93L38.46,71.93L38.34,40.62C38.56,40.49 38.78,40.37 39.01,40.25Z" style="fill:none;fill-rule:nonzero;"/>
        <path d="M45.85,37.84L39.12,72L38.46,71.87L45.14,37.98C45.38,37.93 45.62,37.88 45.85,37.83" style="fill:rgb(201,165,46);"/>
        <path d="M45.85,37.84L39.12,72L38.46,71.87L45.14,37.98C45.38,37.93 45.62,37.88 45.85,37.83L45.85,37.84Z" style="fill:none;fill-rule:nonzero;"/>
        <path d="M53.42,37.48L39.08,72.07L38.46,71.82L52.71,37.42C52.94,37.44 53.18,37.45 53.42,37.47" style="fill:rgb(201,165,46);"/>
        <path d="M53.42,37.48L39.08,72.07L38.46,71.82L52.71,37.42C52.94,37.44 53.18,37.45 53.42,37.47L53.42,37.48Z" style="fill:none;fill-rule:nonzero;"/>
        <path d="M61,39.34L39.04,72.13L38.48,71.76L60.37,39.07C60.58,39.15 60.79,39.24 61,39.33" style="fill:rgb(201,165,46);"/>
        <path d="M61,39.34L39.04,72.13L38.48,71.76L60.37,39.07C60.58,39.15 60.79,39.24 61,39.33L61,39.34Z" style="fill:none;fill-rule:nonzero;"/>
        <path d="M67.65,43.58L38.98,72.18L38.5,71.71L67.15,43.13C67.32,43.27 67.49,43.42 67.65,43.57" style="fill:rgb(201,165,46);"/>
        <path d="M67.65,43.58L38.98,72.18L38.5,71.71L67.15,43.13C67.32,43.27 67.49,43.42 67.65,43.57L67.65,43.58Z" style="fill:none;fill-rule:nonzero;"/>
        <path d="M72.74,49.64L38.92,72.23L38.54,71.68L72.37,49.08C72.5,49.26 72.62,49.45 72.73,49.64" style="fill:rgb(201,165,46);"/>
        <path d="M72.74,49.64L38.92,72.23L38.54,71.68L72.37,49.08C72.5,49.26 72.62,49.45 72.73,49.64L72.74,49.64Z" style="fill:none;fill-rule:nonzero;"/>
        <path d="M76.17,56.71L38.85,72.25L38.59,71.64L75.94,56.09C76.02,56.3 76.09,56.51 76.17,56.71" style="fill:rgb(201,165,46);"/>
        <path d="M76.17,56.71L38.85,72.25L38.59,71.64L75.94,56.09C76.02,56.3 76.09,56.51 76.17,56.71Z" style="fill:none;fill-rule:nonzero;"/>
        <path d="M78.11,64.25L38.76,72.26L38.62,71.61L77.99,63.6C78.03,63.82 78.07,64.03 78.1,64.25" style="fill:rgb(201,165,46);"/>
        <path d="M78.11,64.25L38.76,72.26L38.62,71.61L77.99,63.6C78.03,63.82 78.07,64.03 78.1,64.25L78.11,64.25Z" style="fill:none;fill-rule:nonzero;"/>
        <path d="M78.76,71.96L38.69,72.26L38.69,71.6L78.75,71.3L78.75,71.96" style="fill:rgb(201,165,46);"/>
        <path d="M78.76,71.96L38.69,72.26L38.69,71.6L78.75,71.3L78.75,71.96L78.76,71.96Z" style="fill:none;fill-rule:nonzero;"/>
        <path d="M38.8,61.85C44.47,61.85 49.06,66.37 49.06,71.94L28.53,71.94C28.53,66.37 33.13,61.85 38.79,61.85" style="fill:rgb(201,165,46);"/>
        <path d="M38.8,62.72C44,62.72 48.22,66.75 48.22,71.72L29.38,71.72C29.38,66.75 33.6,62.72 38.8,62.72" style="fill:rgb(249,202,18);"/>
        <g>
            <clipPath id="_clip11">
                <path d="M23.15,72.17C23.15,73.49 23.21,74.81 23.32,76.12C29.76,76.33 38.05,75.95 38.25,77.17C38.28,77.33 38.62,77.25 38.92,77.17C39.23,77.08 39.49,77 39.32,77.17C36.37,80.44 40.03,86.07 43.75,88.96C55.33,97.94 51.1,102.99 41.71,105.02C44.48,106.07 47.56,106.65 50.94,106.65C61.64,106.65 69.23,100.92 73.75,92.76C66.82,90.01 55.08,88.58 52.36,82.42C51.46,80.39 56.99,76.56 57.86,74.9C59.53,71.7 48.67,72.38 48.97,72.15L23.34,72.01C23.43,72.01 23.34,72.07 23.15,72.18"/>
            </clipPath>
            <g clip-path="url(#_clip11)">
                <rect x="23.15" y="71.69" width="50.61" height="34.96" style="fill:url(#_Linear12);"/>
            </g>
        </g>
        <g>
            <clipPath id="_clip13">
                <path d="M23.15,72.01L23.15,71.83C21.71,79.44 25.02,91.26 31.93,98.63C37.59,104.67 45.64,107.28 48.92,106.81C49.16,106.77 49.38,106.79 49.58,106.81C49.93,106.84 50.21,106.87 50.34,106.62C57.47,93.19 31.47,78.16 49.94,72.18C51.21,71.77 48.89,71.64 45.09,71.64C38.7,71.64 28.09,72 23.15,72"/>
            </clipPath>
            <g clip-path="url(#_clip13)">
                <rect x="21.72" y="71.64" width="35.75" height="35.64" style="fill:url(#_Linear14);"/>
            </g>
        </g>
        <g>
            <clipPath id="_clip15">
                <path d="M75.38,55.95C68.81,56.02 69.42,63.69 64.89,64.17C63.81,64.29 61.14,63.38 59.29,63.09C56.77,62.69 51.86,68.66 50.7,71.89L78.76,71.89C78.74,66.4 77.78,60.93 75.9,56C75.74,55.97 75.58,55.96 75.42,55.96L75.39,55.96L75.38,55.95Z"/>
            </clipPath>
            <g clip-path="url(#_clip15)">
                <rect x="50.7" y="55.95" width="28.06" height="15.93" style="fill:url(#_Linear16);"/>
            </g>
        </g>
        <path d="M34.64,91.82C30.95,84.31 32.84,79.66 37.98,76.79C35.64,80.92 39.05,84.41 43.99,88.27C40.5,88.99 37.22,90.02 34.77,91.75L34.64,91.82Z" style="fill:white;"/>
        <g>
            <clipPath id="_clip17">
                <path d="M52.62,87.46C57.18,92.23 65.54,92.85 71.68,96.03C76.36,89.59 78.71,80.98 78.75,72.33L50.79,72C48.24,75.97 46.86,81.45 52.62,87.46"/>
            </clipPath>
            <g clip-path="url(#_clip17)">
                <rect x="46.86" y="72" width="31.89" height="24.03" style="fill:url(#_Linear18);"/>
            </g>
        </g>
        <g>
            <clipPath id="_clip19">
                <path d="M72.55,64.42C70.18,64.7 68.57,68.54 63.94,71.41L78.74,71.41C78.71,69.37 78.56,67.33 78.27,65.32C76.84,65.13 74.65,64.6 73.11,64.42L72.55,64.42Z"/>
            </clipPath>
            <g clip-path="url(#_clip19)">
                <rect x="63.95" y="64.42" width="14.8" height="6.99" style="fill:url(#_Linear20);"/>
            </g>
        </g>
        <rect x="36.8" y="53.27" width="3.72" height="1.94" style="fill:rgb(249,202,18);"/>
        <rect x="36.8" y="53.27" width="3.72" height="1.94" style="fill:none;"/>
        <path d="M52.18,49.04C54.6,48.99 57.02,49.07 59.29,49.89C61.05,50.53 61.73,50.5 63.36,52.02L60.89,53.57C58.41,50.82 55.31,50.34 52.11,49.42C50.77,49.03 50.83,49.07 52.19,49.04" style="fill:white;"/>
        <path d="M62.26,52.01C64.26,52.15 66.54,50.64 67.49,50.46C67.81,50.4 68.41,50.98 68.13,51.25C67.95,51.43 66.86,51.82 66.56,51.99C66.36,52.09 68.09,51.19 68.31,51.23C68.8,51.31 69.09,52.1 68.88,52.26C68.88,52.26 67.34,52.67 66.88,52.88C66.45,53.07 68.16,52.29 68.88,52.26C69.14,52.25 69.43,53.06 69.06,53.29C67.98,53.99 66.54,54.02 65.39,54.52C65.83,56.24 66.96,58.21 66.9,59.99C66.81,62.77 65.28,65.36 64.81,67.96C64.62,68.98 64.75,69.24 64.54,68.06C63.93,64.67 63.7,58.65 62.11,56.42C61.46,56.01 60.98,55.66 60.18,55.38C59.76,55.21 59.13,55.2 58.32,55.14C57.88,55.26 56.84,55.49 56.4,55.61C56.54,54.8 57.18,52.52 58.71,52.71L62.25,52.01L62.26,52.01Z" style="fill:white;"/>
        <path d="M63,81.63L62.95,82.53L64.14,83.4L64.11,82.38L63.04,81.58L63,81.63ZM62.46,97.48L62.43,98.36L62.53,98.44L63.75,98.44L62.46,97.48ZM62.52,95.71L62.49,96.61L64.58,98.15L64.56,97.21L62.53,95.7L62.52,95.71ZM62.58,93.94L62.53,94.86L64.54,96.32L64.5,95.37L62.57,93.94L62.58,93.94ZM62.64,92.17L62.59,93.08L64.48,94.5L64.48,93.52L62.64,92.17ZM62.7,90.4L62.66,91.34L64.43,92.63L64.39,91.66L62.7,90.4ZM62.76,88.63L62.71,89.56L64.36,90.79L64.33,89.79L62.76,88.62L62.76,88.63ZM62.82,86.86L62.77,87.83L64.3,88.94L64.27,87.94L62.83,86.87L62.82,86.86ZM62.88,85.09L62.82,86.04L64.23,87.08L64.2,86.08L62.87,85.09L62.88,85.09ZM62.94,83.32L62.88,84.29L64.2,85.25L64.15,84.23L62.94,83.33L62.94,83.32Z" style="fill:rgb(171,145,118);"/>
        <path d="M62.36,97.59L62.33,98.47L62.43,98.54L63.65,98.54L62.36,97.59ZM62.42,95.82L62.39,96.71L64.48,98.26L64.46,97.34L62.43,95.82L62.42,95.82ZM62.48,94.05L62.45,94.93L64.43,96.4L64.4,95.48L62.47,94.05L62.48,94.05Z" style="fill:none;fill-rule:nonzero;"/>
        <g>
            <clipPath id="_clip21">
                <path d="M34.69,59.13L34.69,71.49L42.92,71.49L42.9,59.13L34.69,59.13Z"/>
            </clipPath>
            <g clip-path="url(#_clip21)">
                <rect x="34.69" y="59.13" width="8.24" height="12.36" style="fill:url(#_Linear22);"/>
            </g>
        </g>
        <g>
            <clipPath id="_clip23">
                <path d="M38.77,49.89C38.27,49.89 38.01,50.51 37.62,51C37.21,51.51 36.83,51.82 36.83,51.82L36.79,56.88L36.97,57.11L36.86,58.9L40.37,58.95L40.25,57.11L40.98,56.95L40.9,55.19L40.82,52.31C40.82,52.31 39.95,51.46 39.6,50.94C39.28,50.47 39.48,49.89 38.76,49.89L38.77,49.89Z"/>
            </clipPath>
            <g clip-path="url(#_clip23)">
                <rect x="36.8" y="49.89" width="4.19" height="9.06" style="fill:url(#_Linear24);"/>
            </g>
        </g>
        <rect x="37.02" y="53.36" width="3.35" height="1.56" style="fill:rgb(249,202,18);"/>
        <path d="M37.75,11.6C39.13,11.68 40.37,12.54 40.27,13.67C40.17,14.8 39.51,20.02 39.51,20.02L33.95,20.42L34.96,13.25C34.96,13.25 36.36,11.52 37.75,11.6" style="fill:rgb(234,214,176);"/>
        <path d="M36.33,13.91C36.15,15.82 35.91,17.12 35.73,19.04C36.71,18.96 37.4,18.95 38.16,18.88C38.4,17 38.59,15.61 38.82,13.73C38.34,12.63 37.08,12.78 36.32,13.92" style="fill:rgb(110,78,50);fill-rule:nonzero;"/>
        <path d="M66.05,19.04C65.87,17.13 65.63,15.82 65.45,13.91C64.7,12.78 63.43,12.63 62.95,13.73C63.19,15.61 63.37,17 63.62,18.88C64.37,18.95 65.07,18.96 66.05,19.04" style="fill:rgb(110,78,50);fill-rule:nonzero;"/>
        <path d="M54.6,22.14L54.55,21.44C54.34,19 54.16,15.1 51.1,15.1C48.04,15.1 47.94,19.14 47.75,21.54L47.72,22.12L54.6,22.14Z" style="fill:rgb(110,78,50);fill-rule:nonzero;"/>
        <path d="M51.12,14.15C55.1,14.15 55.2,18.91 55.51,21.88C55.51,21.88 55.55,22.03 55.54,22.03L55.5,22.12L56.27,22.12L56.25,21.89C56.18,21.1 56.1,20.22 55.98,19.35L57.81,19.39L58.05,21.93L58.1,22.11L58.81,22.11L58.79,21.95L58.55,19.4C59.65,19.44 60.74,19.48 61.84,19.53L61.97,20.54L63.44,20.68C64.26,20.76 65.08,20.77 65.9,20.84L68.09,21.02L67.99,19.9C69.4,20.01 70.81,20.13 72.22,20.27L72.91,22.95L73,23.36L73.71,23.39L73.6,22.71L73,20.36L78.15,20.98L79.28,23.54L79.39,23.79L79.47,23.99C79.47,23.99 79.95,24.06 80.35,24.11L80.35,23.93L80.34,23.93L74.73,11.15L76.72,11.46L78.8,9.7L80.29,6.53C80.54,6.01 80.39,3.61 80.39,2.84C79.24,2.61 72.83,1.32 72.33,1.39L67.78,3.43L67.78,0.78L59.73,0.14L59.73,0.17L56.96,2.76L55.18,2.72L55.18,0L47.13,0L47.13,2.74L45.38,2.79L42.58,0.17L34.53,0.82L34.53,3.42L29.98,1.4C29.45,1.33 23.1,2.6 21.93,2.82C21.93,3.59 21.77,5.98 22.02,6.5C23.89,10.32 22.53,8.93 25.86,11.38L27.41,11.14L21.92,24.02C21.88,24.12 21.91,24.09 21.88,24.09L21.88,24.27L22.72,24.15L22.83,23.97L22.79,23.97L24.06,21.04L24.1,21.04L29.24,20.43L28.54,23.19L28.51,23.28L28.46,23.82L29.13,23.82L29.46,22.52L30.01,20.35C31.28,20.22 32.56,20.11 33.83,20.01L33.74,21.03L35.93,20.85C36.75,20.78 37.57,20.77 38.38,20.69L39.85,20.55L39.97,19.61C41.21,19.55 42.46,19.5 43.69,19.46L43.5,21.46L43.42,22.41L44.14,22.41L44.18,22.09C44.18,22.09 44.19,22.01 44.18,22.01L44.43,19.43L46.32,19.38L46.43,18.66L40.06,18.93C40.17,18.07 40.28,17.21 40.4,16.35L47.22,16.04C46.44,17.71 46.25,19.89 46.07,21.59L46,22.28L46.74,22.28L46.77,21.92C47.08,19 47.27,14.16 51.16,14.16M61.85,12.15C58.43,11.95 55.01,11.85 51.58,11.84L51.58,9.34C55.5,9.35 59.43,9.52 63.33,9.83L63.56,11.2L63.27,11.26C62.7,11.41 62.22,11.72 61.84,12.14M61.15,13.95C61.21,14.46 61.28,14.98 61.35,15.49C60.31,15.44 59.28,15.4 58.24,15.36L58.01,12.67C59.13,12.71 60.25,12.76 61.38,12.82L61.29,13L61.09,13.45L61.15,13.95ZM66.01,19.94C65.19,19.87 64.37,19.86 63.56,19.78L62.82,19.71L62.73,18.99C62.51,17.27 62.28,15.55 62.06,13.84L62.03,13.59L62.13,13.36C62.39,12.77 62.85,12.3 63.5,12.13C64.6,11.84 65.66,12.54 66.24,13.41L66.36,13.6L66.38,13.82C66.54,15.53 66.82,17.23 66.98,18.94L67.08,20.02L65.99,19.93L66.01,19.94ZM67.32,13.75L67.28,13.3L67.25,13.26C68.35,13.37 69.45,13.48 70.54,13.61L71.21,16.25C69.99,16.13 68.78,16.01 67.56,15.91C67.47,15.2 67.38,14.48 67.31,13.76M77.82,20.21L77.69,20.19C74.45,19.76 71.2,19.44 67.93,19.19L67.9,18.88C67.83,18.13 67.74,17.38 67.64,16.63C70.67,16.88 73.69,17.21 76.69,17.65L77.81,20.21L77.82,20.21ZM76.35,16.88L76.22,16.86L71.97,16.34L71.3,13.7L75.18,14.21L76.35,16.89L76.35,16.88ZM74.84,13.43L74.71,13.41L66.74,12.56C66.12,11.81 65.23,11.26 64.27,11.18L64.05,9.89C67.3,10.17 70.53,10.54 73.77,11.01L74.83,13.43L74.84,13.43ZM72.35,2.33L72.31,4.03C71.34,3.9 70.38,3.77 69.45,3.6L72.35,2.33ZM59.71,1.24L59.71,2.86C59.16,2.84 58.62,2.82 58.07,2.8L59.71,1.24ZM42.55,1.25L44.21,2.83C43.66,2.85 43.1,2.87 42.55,2.9L42.55,1.25ZM29.95,2.39L32.93,3.69C31.93,3.81 30.94,3.94 29.95,4.07L29.95,2.39ZM23.8,8.11C22.49,5.61 22.77,6.52 22.77,3.54C24.87,3.14 26.97,2.76 29.07,2.43L29.07,5.06C31.17,4.77 33.27,4.51 35.37,4.29L35.37,1.6C37.47,1.39 39.57,1.22 41.67,1.09L41.67,3.79C43.77,3.69 45.87,3.62 47.97,3.57L47.97,0.87C50.07,0.85 52.17,0.84 54.27,0.87L54.27,3.58C56.37,3.62 58.47,3.68 60.57,3.77L60.57,1.07C62.67,1.2 64.77,1.37 66.87,1.57L66.87,4.23C68.97,4.45 71.07,4.72 73.17,5.01L73.17,2.39C75.27,2.74 77.37,3.12 79.48,3.53C79.48,6.59 79.76,5.53 78.41,8.15C69.08,6.69 59.74,5.84 50.29,5.86C41.4,5.88 32.59,6.69 23.81,8.08L23.79,8.1L23.8,8.11ZM26.05,10.48C25.25,9.89 24.75,9.53 23.95,8.94C42.85,5.95 59.17,6.02 78.24,9L76.45,10.53L67.24,9.32C53.53,7.89 40.45,8.25 26.04,10.48M28.29,11.02C31.58,10.55 34.88,10.17 38.18,9.89L37.97,11.17C36.8,11.1 35.71,11.73 34.99,12.64L27.26,13.45L28.29,11.02ZM26.93,14.21L26.97,14.21L30.92,13.71L30.23,16.41L25.76,16.95L26.93,14.21ZM33.89,18.87L33.85,19.28C30.68,19.53 27.5,19.86 24.35,20.27L25.43,17.71L25.47,17.71C28.35,17.31 31.24,16.99 34.13,16.74C34.04,17.45 33.95,18.16 33.88,18.87M34.48,13.75C34.41,14.51 34.32,15.26 34.22,16.02C33.14,16.11 32.07,16.21 30.99,16.32L31.68,13.62C32.62,13.51 33.57,13.42 34.51,13.33L34.47,13.75L34.48,13.75ZM39.74,13.84C39.52,15.56 39.29,17.27 39.07,18.99L38.98,19.71L38.24,19.78C37.43,19.86 36.61,19.87 35.79,19.94L34.7,20.03L34.8,18.95C34.96,17.24 35.24,15.54 35.4,13.83L35.42,13.61L35.55,13.42C36.13,12.54 37.19,11.84 38.29,12.14C38.94,12.31 39.4,12.78 39.66,13.37L39.76,13.6L39.73,13.85L39.74,13.84ZM40.01,12.18C39.66,11.77 39.21,11.46 38.69,11.29L38.94,9.82C42.88,9.5 46.84,9.33 50.81,9.32L50.81,11.82C47.21,11.84 43.61,11.95 40.01,12.17M44,15.39C42.82,15.44 41.64,15.49 40.45,15.55C40.52,15.01 40.59,14.47 40.66,13.93L40.72,13.43L40.52,12.98L40.46,12.85C41.72,12.78 42.97,12.71 44.23,12.67L44,15.39ZM44.74,15.36L44.97,12.64C49.06,12.5 53.15,12.48 57.24,12.62L57.47,15.31L54.7,15.26C54.85,15.49 54.99,15.73 55.11,15.98L61.42,16.24C61.53,17.1 61.65,17.96 61.76,18.83L55.88,18.61L55.93,18.92C55.48,16.11 54.43,13.41 51.13,13.41C49.42,13.41 48.31,14.17 47.59,15.29L44.75,15.37L44.74,15.36Z" style="fill:rgb(110,78,50);fill-rule:nonzero;"/>
        <rect x="37.92" y="63.55" width="1.96" height="1.89" style="fill:rgb(64,88,100);"/>
        <path d="M42.55,92.9C42.91,92.55 42.91,92.2 42.55,91.85L40.96,91.85L40.96,91.76L40.97,90.9C40.97,90.7 40.8,90.53 40.6,90.53L39.72,90.53C39.51,90.53 39.35,90.7 39.35,90.9L39.35,91.85L35.75,91.85C38.17,90.35 41.13,89.51 43.88,88.94L45.41,88.63L44.18,87.68C42.01,85.98 38.11,82.97 37.8,80.04C37.7,79.07 37.97,78.17 38.45,77.33L39.72,75.09L37.45,76.35C31.03,79.92 30.97,85.82 33.92,91.86L32.99,91.86L32.99,91.32L31.75,91.32L31.75,91.86L30.35,91.86C29.99,92.15 29.99,92.49 30.35,92.91C34.26,93.56 38.33,93.56 42.53,92.91M37.8,76.98C35.47,81.1 38.8,84.4 43.71,88.25C40.24,88.96 37.09,89.99 34.65,91.71C31.15,84.67 32.68,79.84 37.8,76.99" style="fill:rgb(64,88,100);fill-rule:nonzero;"/>
        <path d="M58.75,53.51C58.56,53.5 58.4,53.64 58.39,53.83C58.38,54.02 58.52,54.19 58.7,54.2C58.88,54.22 59.05,54.07 59.06,53.88C59.07,53.69 58.94,53.52 58.75,53.5" style="fill:rgb(64,88,100);fill-rule:nonzero;"/>
        <path d="M92.56,56.55C93.17,51.11 97.02,47.36 101.48,44.53L102.27,44.02L87.4,25.14L87.09,25.08C85.31,24.74 83.53,24.43 81.75,24.15C76.32,23.42 72.48,22.93 69.12,22.6C68.2,22.52 67.28,22.44 66.36,22.38L66.27,22.38L65.44,22.32L65.22,22.3L65,22.3C62.95,22.15 60.9,22.05 58.84,21.98L58.82,21.98C58.58,21.97 58.33,21.96 58.08,21.95C57.88,21.95 57.67,21.95 57.47,21.94C49.95,21.78 43.3,22.03 38.57,22.32C36.93,22.42 26.33,23.47 24.36,23.71C24.25,23.72 24.15,23.74 24.04,23.75C21.64,24.08 16.69,24.85 14.88,25.13L0,44.02L0.79,44.53C5.24,47.36 9.1,51.1 9.71,56.55C10.31,61.89 7.43,68.1 5.41,72.96C2.7,79.47 0.18,85.91 0.18,93.08C0.18,94.62 0.41,96.14 0.87,97.61C2.35,102.38 6.03,106.21 9.9,109.27C14.41,112.82 19.65,115.74 24.73,118.43C30.01,121.23 35.48,123.88 40.58,126.98C43.98,129.05 48.5,132.11 50.38,135.68L51.14,137.14L51.9,135.68C53.77,132.1 58.3,129.05 61.7,126.98C66.8,123.87 72.26,121.23 77.55,118.43C82.63,115.73 87.87,112.82 92.38,109.27C96.25,106.22 99.93,102.38 101.41,97.61C101.86,96.14 102.1,94.62 102.1,93.08C102.1,85.91 99.58,79.48 96.87,72.96C94.85,68.1 91.97,61.89 92.57,56.55M51.14,135.3C43.98,121.62 1.04,113.59 1.04,93.08C1.04,72.57 22.73,57.49 1.26,43.82L15.35,25.91C40.62,21.66 64.45,21.63 86.91,25.91L101,43.82C79.53,57.49 101.22,72.57 101.22,93.08C101.22,113.59 58.28,121.63 51.12,135.3" style="fill:rgb(64,88,100);fill-rule:nonzero;"/>
        <path d="M29.91,4.1L33.04,3.69L29.91,2.33L29.91,4.1Z" style="fill:rgb(234,214,176);"/>
        <path d="M92.86,74.53C90.49,68.81 87.63,62.37 88.34,56.06C88.92,50.92 91.71,46.9 95.65,43.63L96.29,43.11L84.99,28.97L84.67,28.91C62.43,24.89 39.79,25.36 17.54,28.95L17.21,29L5.94,43.11L6.58,43.63C10.52,46.9 13.31,50.91 13.89,56.06C14.6,62.37 11.75,68.81 9.37,74.53C6.9,80.47 4.46,86.54 4.46,93.06C4.46,94.18 4.63,95.29 4.96,96.35C7.46,104.42 19.62,110.9 26.76,114.68C32.14,117.53 37.63,120.2 42.83,123.37C45.54,125.02 48.24,126.85 50.53,129.04L51.13,129.62L51.73,129.04C54.02,126.85 56.72,125.02 59.43,123.37C64.63,120.2 70.12,117.54 75.5,114.68C83.25,110.57 97.79,103.04 97.79,93.05C97.79,86.53 95.34,80.46 92.88,74.52M75.09,113.93C69.71,116.78 64.17,119.48 58.97,122.64C56.34,124.24 53.49,126.15 51.12,128.43C48.75,126.16 45.9,124.25 43.28,122.64C38.09,119.48 32.54,116.78 27.16,113.93C20.36,110.33 8.19,103.87 5.78,96.1C5.47,95.1 5.32,94.09 5.32,93.05C5.32,86.66 7.75,80.66 10.17,74.84C12.61,68.97 15.47,62.44 14.75,55.96C14.14,50.51 11.15,46.31 7.14,42.98L13.16,35.45L27.93,50.02C18.57,65.8 20.81,91.09 34.91,102.14C39.6,105.82 45.15,107.55 51.13,107.55C61.37,107.55 68.88,102.52 73.67,95.14L86.19,107.49C82.27,110.17 78.06,112.36 75.09,113.94M53.66,37.61C53.74,37.61 53.85,37.63 53.96,37.65C56.04,37.86 57.99,38.3 59.81,38.95L59.83,38.95C60,39.01 60.19,39.08 60.4,39.16C60.43,39.17 60.46,39.18 60.49,39.2C60.68,39.28 60.89,39.36 61.11,39.46C61.33,39.56 61.2,39.5 61.25,39.52C61.31,39.55 61.36,39.57 61.43,39.6C61.47,39.61 61.52,39.64 61.57,39.67C63.42,40.51 65.13,41.56 66.68,42.8C66.7,42.82 66.72,42.83 66.73,42.84C66.98,43.03 67.34,43.34 67.74,43.7C67.84,43.79 67.95,43.88 68.05,43.98C68.09,44.01 68.11,44.04 68.14,44.07C69.71,45.54 71.12,47.2 72.34,49.03C72.35,49.05 72.36,49.06 72.37,49.07C72.39,49.1 72.41,49.13 72.43,49.16C72.57,49.37 72.7,49.58 72.79,49.72C72.74,49.64 72.69,49.56 72.64,49.48L72.79,49.72C72.79,49.72 72.8,49.75 72.81,49.76C72.83,49.78 72.84,49.81 72.85,49.83C73.92,51.54 74.85,53.37 75.63,55.3L75.41,55.3C72.18,55.33 70.57,57.01 69.38,58.87C69.34,58.93 69.02,59.5 68.79,59.86C68.26,60.78 67.78,61.67 67.2,62.36C67.32,61.91 67.41,61.46 67.48,60.99C67.51,60.78 67.53,60.57 67.55,60.37C67.55,60.1 67.57,59.62 67.57,59.62C67.52,57.98 66.72,56.49 66.22,54.94C67.27,54.61 68.35,54.54 69.38,53.88C70.01,53.47 70,52.54 69.6,51.98C69.6,51.98 69.54,51.63 69.48,51.49C69.44,51.4 69.33,51.24 69.25,51.11C69.11,50.93 68.95,50.78 68.76,50.67C68.52,50.12 67.89,49.69 67.29,49.8C66.81,49.89 66.23,50.19 65.78,50.4C65.19,50.68 64.6,50.95 63.98,51.16C63.8,51.22 63.61,51.28 63.43,51.33C62.76,50.85 62.06,50.42 61.32,50.05C61.08,49.93 60.83,49.81 60.41,49.64C60.19,49.55 59.97,49.46 59.74,49.38C58.22,48.83 56.66,48.54 55.07,48.42C54.54,48.37 54.03,48.37 53.3,48.35L52.45,48.35C51.88,48.36 50.81,48.22 50.7,49.03C50.59,49.83 51.64,49.98 52.19,50.14C52.21,50.14 52.24,50.15 52.26,50.16C52.7,50.28 52.4,50.2 53.82,50.58C55.38,51 56.86,51.42 58.21,52.16C57.4,52.3 56.81,52.88 56.46,53.68L56.31,54.04C56.13,54.49 56,55 55.92,55.43C55.84,55.86 55.77,56.33 55.77,56.33L56.88,56.02C57.34,55.9 57.9,55.83 58.36,55.72C58.84,55.77 59.43,55.84 59.86,56.01L59.9,56.01C60.28,56.15 60.65,56.3 61.01,56.47C61.04,56.48 61.07,56.49 61.1,56.51C61.57,56.72 61.75,56.87 61.85,56.99C61.95,57.11 61.87,57.03 61.89,57.05C61.89,57.06 61.9,57.07 61.91,57.08L61.91,57.1C62.49,58.15 62.81,59.92 63.01,61.38C63.21,62.84 63.01,61.45 63.02,61.48L63.02,61.5C63.04,61.66 63.07,61.91 63.1,62.18C63.13,62.45 63.16,62.7 63.19,62.92L63.23,63.28C62.81,63.17 62.41,63.06 62.11,62.98C61.99,62.94 61.89,62.92 61.82,62.9L61.8,62.9L61.73,62.88C61.37,62.78 60.63,62.6 60.23,62.51C59.98,62.46 59.73,62.4 59.48,62.36C58.33,62.18 57.1,62.92 56.22,63.58C55.95,63.79 55.67,64.01 55.41,64.25C54.54,65.07 54.06,65.57 53.57,66.14C53.47,66.25 53.38,66.37 53.29,66.48C52.82,67.05 52.43,67.57 51.99,68.18C51.8,68.44 51.62,68.71 51.45,68.99C51.23,69.35 51.04,69.68 50.9,69.93C50.66,70.37 50.45,70.8 50.27,71.23L43.53,71.23L43.53,58.74L40.9,58.74L40.81,57.27L41.59,57.27L41.59,54.51L40.91,54.51L40.91,53.63L41.45,53.63L41.45,52.73C41.45,51.85 40.84,51.2 40.08,50.87L40.11,50.6C40.11,50.03 39.74,49.55 39.22,49.39C39.1,49.36 38.98,49.34 38.86,49.34C38.74,49.34 38.63,49.34 38.55,49.35C37.96,49.47 37.52,49.99 37.52,50.6L37.55,50.88C36.8,51.22 36.22,51.85 36.22,52.72L36.22,53.62L36.76,53.62L36.76,54.5L36.08,54.5L36.08,57.26L36.91,57.26L36.82,58.73L34.19,58.73L34.19,71.23L23.39,71.23C23.39,71.06 23.39,70.89 23.4,70.72C23.38,70.58 23.37,70.38 23.39,70.08C23.43,69.41 23.45,69.23 23.52,68.41C23.52,68.28 23.54,68.15 23.55,68.02C23.55,67.93 23.57,67.83 23.57,67.71C23.68,66.26 23.75,65.83 23.96,64.49C24,64.27 24.03,64.06 24.07,63.86C24.24,62.85 24.41,62.07 24.58,61.36C24.67,60.98 24.75,60.67 24.82,60.36C24.83,60.32 24.84,60.29 24.85,60.25C24.95,59.89 25.05,59.51 25.2,58.99C25.37,58.4 25.54,57.88 25.73,57.32C25.87,56.92 26.01,56.53 26.16,56.14C26.17,56.1 26.18,56.07 26.2,56.03C26.62,54.87 26.69,54.69 27.22,53.6C27.25,53.54 27.28,53.48 27.3,53.42C27.88,52.19 28.52,51 29.22,49.87C29.22,49.87 29.22,49.86 29.23,49.85C29.63,49.09 30.37,48.12 31.05,47.24C31.16,47.1 31.27,46.96 31.38,46.82C31.41,46.78 31.44,46.74 31.47,46.71C32.25,45.71 32.9,45.01 33.78,44.2C33.8,44.18 33.82,44.16 33.84,44.15C34.98,43.07 36.21,42.1 37.54,41.25C37.56,41.23 37.6,41.21 37.62,41.2C38.5,40.61 38.11,40.89 39.16,40.3C39.32,40.21 39.45,40.14 39.56,40.09C40.96,39.38 42.44,38.8 44.01,38.36C44.04,38.35 44.07,38.34 44.09,38.33C44.84,38.11 45.43,37.99 46.01,37.89C47.61,37.58 49.29,37.42 51.05,37.42L51.36,37.42C51.71,37.42 52.02,37.43 52.43,37.46C52.62,37.46 52.77,37.47 52.79,37.47C53.02,37.49 53.28,37.5 53.59,37.52M23.35,71.92L24.08,71.92L24.05,71.92L49.81,71.92C48.91,72.2 48.11,72.5 47.41,72.83L47.2,72.93C46.98,73.04 46.78,73.14 46.58,73.25C46.35,73.38 46.12,73.51 45.92,73.65C43.84,75.01 43.03,76.66 43,78.54C43,79.38 43.15,80.27 43.41,81.2C43.67,82.13 43.5,81.5 43.5,81.5L43.5,81.53C43.61,81.86 43.73,82.2 43.86,82.54C44.28,83.65 44.8,84.72 45.34,85.79C45.73,86.55 46.14,87.31 46.54,88.07C48.31,91.38 50.27,94.84 51.06,98.55C51.53,100.74 51.56,102.99 50.78,105.14C50,107.29 50.77,105.18 50.77,105.18C50.69,105.42 50.59,105.65 50.49,105.88C50.41,106.06 50.33,106.24 50.24,106.41L50.2,106.41C49.52,106.39 48.83,106.35 48.15,106.27C44.47,105.89 40.89,104.73 37.73,102.76C27.52,96.4 23.01,83.37 23.36,71.97C23.71,60.57 23.36,71.93 23.36,71.93L23.35,71.92ZM37.14,60.53L37.14,59.42L38.27,59.42L38.27,60.53L39.4,60.53L39.4,59.42L40.53,59.42L40.53,60.53L41.66,60.53L41.66,59.42L42.79,59.42L42.79,61.84L34.9,61.84L34.9,59.42L36.03,59.42L36.03,60.53L37.16,60.53L37.14,60.53ZM38.8,51.3C39.84,51.3 40.69,51.93 40.69,52.7L40.69,52.89L36.9,52.89L36.9,52.7C36.9,51.93 37.75,51.3 38.8,51.3M38.2,50.58C38.2,50.27 38.46,50.01 38.77,50.01C39.08,50.01 39.35,50.26 39.35,50.58L39.35,50.64C39.16,50.6 38.98,50.59 38.8,50.59C38.61,50.59 38.4,50.61 38.2,50.65L38.2,50.58ZM40.13,53.6L40.13,54.48L39.2,54.48L39.2,53.6L40.13,53.6ZM38.42,54.48L37.47,54.48L37.47,53.6L38.42,53.6L38.42,54.48ZM40.84,56.52L36.77,56.52L36.77,55.19L40.84,55.19L40.84,56.52ZM40.14,58.7L37.51,58.7L37.6,57.23L40.05,57.23L40.14,58.7ZM42.77,65.99L34.88,65.99L34.88,62.58L42.77,62.58L42.77,65.99ZM42.77,66.73L42.77,71.12L39.85,71.12L39.85,68.72C39.85,68.07 39.4,67.47 38.79,67.47C38.18,67.47 37.73,68.07 37.73,68.72L37.73,71.12L34.88,71.12L34.88,66.73L42.77,66.73ZM51.04,106.41C53.44,101.36 51.61,96.27 49.16,91.44C47.76,88.66 46.15,85.97 45.02,83.42C44.28,81.75 43.5,79.61 43.8,77.73C44.02,76.39 44.83,75.12 45.97,74.41C46.96,73.8 47.9,73.34 48.99,72.94C50.08,72.54 49.1,72.9 49.1,72.9L49.53,72.75C46.68,78.09 47.75,83.2 52.16,87.8C54.67,90.42 58.25,91.83 61.96,93.04L61.76,98.91L65.11,98.91L65.11,98.32C65.07,96.88 65.03,95.44 64.98,94C67.17,94.7 69.32,95.44 71.24,96.42C66.64,102.44 59.91,106.41 51.04,106.41L51.03,106.41L51.04,106.41ZM64.9,83.08L66,84.2L66.42,83.8L65.2,82.55C66.1,83.02 66.85,83.65 67.5,84.47L67.55,84.64L67.53,84.83L67.28,87.36L66.01,86.04L65.87,85.94L65.81,85.73C65.55,84.75 65.33,83.89 64.91,83.06M65.32,86.16L64.79,87.37C64.75,86.25 64.72,85.13 64.69,84.01C64.94,84.65 65.1,85.31 65.3,86.05L65.32,86.09L65.32,86.16ZM65.98,82.3L67.14,82.68L67.32,82.14L65.92,81.68C66.57,81.71 67.22,81.82 67.83,82.01L67.96,82.07L68.03,82.19L69.42,84.62L68.16,84.36L68.14,84.33C67.52,83.49 66.81,82.82 65.98,82.3M68.21,81.47L68.13,81.49L68.06,81.47C67.35,81.23 66.6,81.11 65.84,81.09L67.42,80.82L67.32,80.25L65.46,80.56C66.01,80.23 66.61,79.96 67.11,79.76L67.26,79.69L67.48,79.72L70.18,80.14L68.21,81.46L68.21,81.47ZM67.82,76.22L67.13,76.5L67.89,75.94L67.82,76.22ZM67.63,76.92L67.05,79.08L67.05,79.17L66.95,79.21C66.17,79.52 65.23,79.96 64.46,80.55L66.29,78.47L65.85,78.09L64.24,79.92C64.47,79.25 64.78,78.61 65.19,77.98L65.28,77.86L65.41,77.81L67.63,76.91L67.63,76.92ZM62.46,96.49L62.5,95.61L64.53,97.12L64.55,98.03L62.47,96.49L62.46,96.49ZM63.72,98.33L62.51,98.33L62.41,98.25L62.44,97.37L63.72,98.32L63.72,98.33ZM64.12,84.17L64.14,85.09L62.88,84.15L62.91,83.27L64.12,84.17ZM62.95,82.39L62.97,81.59L63.01,81.54L64.08,82.34L64.1,83.26L62.95,82.4L62.95,82.39ZM64.18,86.02L64.21,86.94L62.83,85.92L62.86,85.04L64.18,86.02ZM64.24,87.87L64.27,88.8L62.77,87.69L62.8,86.81L64.24,87.88L64.24,87.87ZM64.3,89.73L64.33,90.66L62.71,89.45L62.74,88.57L64.3,89.73ZM64.36,91.58L64.39,92.5L62.65,91.2L62.68,90.32L64.37,91.57L64.36,91.58ZM64.42,93.43L64.44,94.35L62.58,92.96L62.61,92.08L64.41,93.42L64.42,93.43ZM64.47,95.28L64.49,96.2L62.52,94.73L62.55,93.85L64.47,95.27L64.47,95.28ZM64.69,77.71C64.32,78.27 64.03,78.85 63.8,79.45L63.8,77.35L63.22,77.35L63.22,79.9C62.96,79.11 62.6,78.35 62.12,77.63L62.1,77.48L63.39,75.02L64.72,77.57L64.72,77.65L64.7,77.72L64.69,77.71ZM62.59,79.85L60.99,78.23L60.57,78.63L62.67,80.77L62.65,80.77C61.85,80.08 60.77,79.56 59.9,79.22L59.8,79.08L59.2,76.85L61.37,77.73L61.51,77.79L61.59,77.9C62.01,78.52 62.33,79.17 62.57,79.84M59.01,76.15L58.94,75.89L59.66,76.42L59.01,76.15ZM59.36,79.73L59.52,79.7L59.67,79.75L61.31,80.54L59.67,80.26L59.57,80.83L61.15,81.1C60.41,81.13 59.67,81.25 58.96,81.48L58.8,81.48L56.8,80.14L59.35,79.74L59.36,79.73ZM58.99,82.19L59.08,82.08L59.19,82.01C59.82,81.81 60.48,81.7 61.15,81.67L59.68,82.15L59.87,82.7L61.06,82.3C60.27,82.8 59.58,83.45 58.97,84.23L58.91,84.29L58.86,84.35L57.6,84.61L58.99,82.18L58.99,82.19ZM59.52,84.48C60.12,83.73 60.8,83.12 61.59,82.66L60.51,83.72L60.92,84.13L62.28,82.8C61.73,83.74 61.44,84.67 61.15,85.8C60.86,86.93 61.1,85.93 61.1,85.93L61.01,86.03L59.74,87.35L59.49,84.82L59.49,84.64L59.52,84.49L59.52,84.48ZM61.74,85.85C61.9,85.23 62.06,84.67 62.28,84.14L62.17,87.24L61.69,86.16L61.69,86.04L61.74,85.85ZM64.97,93.23C64.92,91.73 64.87,90.22 64.82,88.72L65.33,87.54L65.31,89.19L65.89,89.19L65.91,87.62L66.48,89.1L67.03,88.9L66.43,87.32L67.56,88.49L67.99,88.09L67.79,87.89L67.96,86.19L68.41,87.84L68.98,87.69L68.54,86.08L69.49,87.44L69.97,87.11L68.9,85.6L70.37,86.53L70.68,86.05L69.3,85.17L69.77,85.27L69.94,85.56L70.28,85.37L70.91,85.5L71.03,84.93L70.86,84.9L71.21,84.56L69.8,83.1L71.53,84.1L71.83,83.61L69.92,82.51L72.05,82.98L72.18,82.42L70.43,82.03L72.22,81.97L72.2,81.4L70.2,81.47L72.12,80.85L71.94,80.3L70.03,80.92L71,80.27L71.72,79.79L71.39,79.31L70.86,79.66L69.43,79.44L71.29,79.24L71.23,78.67L69.13,78.9L71.03,78.09L70.8,77.56L68.89,78.38L70.46,77.04L70.08,76.61L68.51,77.95L69.63,76.18L69.14,75.88L69.12,75.92L69.04,75.73L68.48,75.96L68.56,75.66L68.35,75.61L68.73,75.33L68.38,74.86L66.56,76.19L67.91,74.45L67.45,74.1L65.98,75.99L66.79,73.77L66.24,73.57L65.56,75.44L65.74,73.46L65.16,73.41L64.97,75.59L64.54,73.42L63.97,73.53L64.4,75.68L63.71,74.37L63.97,73.88L63.45,73.61L63.39,73.73L63.37,73.69L62.85,73.95L63.06,74.36L62.42,75.59L62.85,73.44L62.28,73.33L61.85,75.49L61.65,73.31L61.07,73.36L61.25,75.33L60.57,73.46L60.02,73.65L60.83,75.87L59.36,73.97L58.89,74.32L60.24,76.06L58.42,74.73L58.07,75.19L58.55,75.54L58.3,75.6L58.36,75.84L57.76,75.6L57.65,75.88L57.22,76.14L58.34,77.91L56.78,76.57L56.4,77L57.97,78.34L56.06,77.52L55.83,78.05L57.73,78.86L55.63,78.63L55.57,79.2L57.43,79.4L56.15,79.6L55.65,79.27L55.33,79.75L55.84,80.09L55.86,80.23L56.01,80.21L57.02,80.88L55.11,80.26L54.93,80.81L56.85,81.43L54.85,81.36L54.83,81.93L56.63,81.99L54.88,82.38L55.01,82.94L57.14,82.47L55.24,83.57L55.53,84.06L57.27,83.06L55.85,84.52L56.2,84.86L56.03,84.89L56.15,85.46L56.77,85.33L57.11,85.52L57.28,85.23L57.75,85.13L56.37,86.01L56.68,86.49L58.15,85.56L57.08,87.07L57.56,87.4L58.51,86.04L58.08,87.65L58.65,87.8L59.09,86.15L59.26,87.85L59.06,88.05L59.49,88.45L60.62,87.28L60.02,88.86L60.57,89.06L61.14,87.58L61.16,89.15L61.74,89.15L61.72,87.49L62.18,88.54L62.05,92.23C58.49,91.05 55.11,89.7 52.76,87.23C47.36,81.59 48.27,76.42 50.51,72.53C52.75,68.64 50.51,72.51 50.51,72.51L50.51,72.4L50.6,72.23L50.6,72.19L50.62,72.19L50.71,72.02L50.71,72L50.8,71.86L50.8,71.84L52.11,71.84L78.65,72.15C78.61,80.76 76.26,89.35 71.6,95.76C69.53,94.69 67.22,93.91 64.88,93.17M69.45,83.64L70.6,84.83L70.06,84.72L69.44,83.64L69.45,83.64ZM67.93,77.56L68.19,76.58L68.66,76.39L67.92,77.56L67.93,77.56ZM58.69,77.56L57.9,76.31L58.41,76.52L58.69,77.56ZM57.35,83.64L56.74,84.72L56.21,84.83L57.36,83.64L57.35,83.64ZM78.63,71.23L63.89,71.23C68.85,68.16 70.33,63.95 73.02,64.27C74.55,64.45 76.73,64.98 78.15,65.17C79.57,65.36 78.15,65.17 78.15,65.17C78.43,67.15 78.59,69.17 78.62,71.19L78.62,71.24L78.63,71.23ZM77.71,64.37C77,64.25 76.29,64.11 75.58,63.97C74.77,63.81 73.93,63.65 73.1,63.55C72.78,63.51 72.47,63.52 72.16,63.58C70.66,63.86 69.38,65.33 68.39,66.38C66.86,68.01 65.42,69.42 63.5,70.61L62.35,71.23L50.93,71.09C52.41,67.79 56.89,62.55 59.25,62.92C60.4,63.1 61.94,63.57 63.2,63.87C63.34,65.21 63.46,66.57 63.7,67.88C63.78,68.35 63.75,69.3 64.56,69.27C65.36,69.24 65.27,68.29 65.35,67.82C65.62,66.35 66.18,64.97 66.66,63.54C69.56,61.65 69.67,55.87 75.29,55.81C75.46,55.81 75.63,55.82 75.8,55.85C76.83,58.56 77.59,61.44 78.06,64.4L77.72,64.35L77.71,64.37ZM58.67,52.7L62.03,52.01C64.02,52.15 66.35,50.51 67.3,50.34C67.51,50.3 67.83,50.52 67.95,50.75L65.96,51.68L66.21,52.2L68.36,51.18C68.61,51.38 68.76,51.75 68.73,51.96L66.42,52.51L66.55,53.07L68.99,52.5C69.05,52.72 69.03,52.98 68.85,53.1C67.77,53.79 66.34,53.82 65.2,54.33C65.63,56.05 66.76,58.01 66.7,59.78C66.7,59.97 66.68,60.15 66.66,60.33L65.4,57.71L64.87,57.96L66.51,61.31C66.39,61.93 66.22,62.54 66.02,63.14L64.74,58.79L64.18,58.95L65.71,64.08C65.29,65.3 64.84,66.51 64.62,67.72C64.44,68.73 64.62,68.96 64.41,67.78C63.8,64.4 63.77,58.43 62.18,56.21C61.53,55.8 60.81,55.46 60.01,55.18C59.59,55.01 58.97,54.89 58.17,54.83C57.73,54.94 56.91,55.12 56.48,55.24C56.62,54.43 57.14,52.51 58.67,52.7M52.28,49.27C50.95,48.89 51,48.92 52.36,48.89C54.76,48.84 57.12,49.06 59.37,49.87C60.34,50.22 61.3,50.68 62.24,51.29L62.09,51.29L61.99,51.28L59.24,51.84C57.14,50.42 54.73,49.97 52.28,49.27M86.99,106.63L74.13,93.95C83.62,78.1 81.23,52.49 66.88,41.51C62.25,37.96 56.81,36.27 50.96,36.27C40.71,36.27 33.18,41.37 28.39,48.83L13.72,34.36L17.53,29.59C39.71,26.01 62.21,25.55 84.36,29.55L94.95,42.8C90.94,46.14 87.95,50.33 87.34,55.78C86.61,62.27 89.48,68.79 91.91,74.66C94.33,80.48 96.76,86.48 96.76,92.87C96.76,98.18 92.24,102.86 86.98,106.62" style="fill:rgb(64,88,100);fill-rule:nonzero;"/>
    </g>
    <defs>
        <linearGradient id="_Linear2" x1="0" y1="0" x2="1" y2="0" gradientUnits="userSpaceOnUse" gradientTransform="matrix(62.4384,0,0,62.4384,14.6492,14.756)"><stop offset="0" style="stop-color:rgb(215,180,109);stop-opacity:1"/><stop offset="0.51" style="stop-color:rgb(236,216,176);stop-opacity:1"/><stop offset="0.52" style="stop-color:rgb(235,215,174);stop-opacity:1"/><stop offset="1" style="stop-color:rgb(215,180,107);stop-opacity:1"/></linearGradient>
        <linearGradient id="_Linear4" x1="0" y1="0" x2="1" y2="0" gradientUnits="userSpaceOnUse" gradientTransform="matrix(56.1241,0,0,56.1241,26.8897,1.4707)"><stop offset="0" style="stop-color:rgb(182,149,68);stop-opacity:1"/><stop offset="0.51" style="stop-color:rgb(198,167,101);stop-opacity:1"/><stop offset="1" style="stop-color:rgb(183,149,66);stop-opacity:1"/></linearGradient>
        <linearGradient id="_Linear6" x1="0" y1="0" x2="1" y2="0" gradientUnits="userSpaceOnUse" gradientTransform="matrix(59.078,0,0,59.078,22.03,16.582)"><stop offset="0" style="stop-color:rgb(218,183,114);stop-opacity:1"/><stop offset="0.51" style="stop-color:rgb(223,193,138);stop-opacity:1"/><stop offset="1" style="stop-color:rgb(218,183,114);stop-opacity:1"/></linearGradient>
        <radialGradient id="_Radial8" cx="0" cy="0" r="1" gradientUnits="userSpaceOnUse" gradientTransform="matrix(52.326,0,0,-51.597,49.3586,76.7042)"><stop offset="0" style="stop-color:rgb(3,165,104);stop-opacity:1"/><stop offset="0.39" style="stop-color:rgb(2,156,94);stop-opacity:1"/><stop offset="1" style="stop-color:rgb(0,134,71);stop-opacity:1"/></radialGradient>
        <radialGradient id="_Radial10" cx="0" cy="0" r="1" gradientUnits="userSpaceOnUse" gradientTransform="matrix(37.773,0,0,-37.233,34.0032,59.619)"><stop offset="0" style="stop-color:rgb(223,239,223);stop-opacity:1"/><stop offset="0.14" style="stop-color:rgb(213,236,223);stop-opacity:1"/><stop offset="0.36" style="stop-color:rgb(189,228,226);stop-opacity:1"/><stop offset="0.65" style="stop-color:rgb(148,214,230);stop-opacity:1"/><stop offset="0.98" style="stop-color:rgb(93,197,235);stop-opacity:1"/><stop offset="1" style="stop-color:rgb(90,196,236);stop-opacity:1"/></radialGradient>
        <linearGradient id="_Linear12" x1="0" y1="0" x2="1" y2="0" gradientUnits="userSpaceOnUse" gradientTransform="matrix(54.243,0,0,54.243,12.1448,105.457)"><stop offset="0" style="stop-color:white;stop-opacity:1"/><stop offset="0.18" style="stop-color:rgb(254,250,245);stop-opacity:1"/><stop offset="0.48" style="stop-color:rgb(253,238,221);stop-opacity:1"/><stop offset="0.85" style="stop-color:rgb(250,218,181);stop-opacity:1"/><stop offset="1" style="stop-color:rgb(250,210,163);stop-opacity:1"/></linearGradient>
        <linearGradient id="_Linear14" x1="0" y1="0" x2="1" y2="0" gradientUnits="userSpaceOnUse" gradientTransform="matrix(36.504,0,0,36.504,18.5252,96.7852)"><stop offset="0" style="stop-color:rgb(0,174,179);stop-opacity:1"/><stop offset="0.18" style="stop-color:rgb(9,175,180);stop-opacity:1"/><stop offset="0.47" style="stop-color:rgb(33,180,185);stop-opacity:1"/><stop offset="0.84" style="stop-color:rgb(73,189,194);stop-opacity:1"/><stop offset="1" style="stop-color:rgb(93,193,198);stop-opacity:1"/></linearGradient>
        <linearGradient id="_Linear16" x1="0" y1="0" x2="1" y2="0" gradientUnits="userSpaceOnUse" gradientTransform="matrix(1.03826e-15,16.956,-16.956,1.03826e-15,66.9932,55.9148)"><stop offset="0" style="stop-color:rgb(21,164,118);stop-opacity:1"/><stop offset="0.33" style="stop-color:rgb(17,155,108);stop-opacity:1"/><stop offset="0.87" style="stop-color:rgb(6,133,84);stop-opacity:1"/><stop offset="1" style="stop-color:rgb(4,127,77);stop-opacity:1"/></linearGradient>
        <linearGradient id="_Linear18" x1="0" y1="0" x2="1" y2="0" gradientUnits="userSpaceOnUse" gradientTransform="matrix(33.1975,0,0,33.1975,37.9275,100.36)"><stop offset="0" style="stop-color:rgb(233,182,138);stop-opacity:1"/><stop offset="0.31" style="stop-color:rgb(227,174,128);stop-opacity:1"/><stop offset="0.81" style="stop-color:rgb(213,154,104);stop-opacity:1"/><stop offset="1" style="stop-color:rgb(207,146,93);stop-opacity:1"/></linearGradient>
        <linearGradient id="_Linear20" x1="0" y1="0" x2="1" y2="0" gradientUnits="userSpaceOnUse" gradientTransform="matrix(3.24734e-15,53.0331,-53.0331,3.24734e-15,1297.97,531.328)"><stop offset="0" style="stop-color:rgb(21,164,118);stop-opacity:1"/><stop offset="0.33" style="stop-color:rgb(17,155,108);stop-opacity:1"/><stop offset="0.87" style="stop-color:rgb(6,133,84);stop-opacity:1"/><stop offset="1" style="stop-color:rgb(4,127,77);stop-opacity:1"/></linearGradient>
        <linearGradient id="_Linear22" x1="0" y1="0" x2="1" y2="0" gradientUnits="userSpaceOnUse" gradientTransform="matrix(8.2384,0,0,8.2384,40.1544,47.1696)"><stop offset="0" style="stop-color:rgb(218,217,216);stop-opacity:1"/><stop offset="0.34" style="stop-color:rgb(225,225,225);stop-opacity:1"/><stop offset="0.9" style="stop-color:rgb(244,247,249);stop-opacity:1"/><stop offset="1" style="stop-color:rgb(249,252,255);stop-opacity:1"/></linearGradient>
        <linearGradient id="_Linear24" x1="0" y1="0" x2="1" y2="0" gradientUnits="userSpaceOnUse" gradientTransform="matrix(17.6001,0,0,17.6001,192.869,513.703)"><stop offset="0" style="stop-color:rgb(218,217,216);stop-opacity:1"/><stop offset="0.34" style="stop-color:rgb(225,225,225);stop-opacity:1"/><stop offset="0.9" style="stop-color:rgb(244,247,249);stop-opacity:1"/><stop offset="1" style="stop-color:rgb(249,252,255);stop-opacity:1"/></linearGradient>
    </defs>
</svg>
